PathFileType	4	(X/Y/Z)	/Users/itak/Documents/Research/Walk-IL/dataset/trc/00397_00012.trc
DataRate	CameraRate	NumFrames	NumMarkers	Units	OrigDataRate	OrigDataStartFrame	OrigNumFrames
100.000000	100.000000	4	53	mm	100.000000	270	722
Frame#	Time	RPSI			LPSI			L3			STRN			T10			C7			CLAV			RBAK			LBAK			LSHO			LUPA			LAEL			LAOL			LWTS			LWPS			LFRA			LIFD			LHPS			LHTS			RSHO			RUPA			RAEL			RAOL			RWTS			RWPS			RFRA			RIFD			RHTS			RHPS			RBHD			LFHD			RFHD			LBHD			LHIP			RHIP			RASI			LASI			LKNE			LTHI			LANK			LTIP			LTOE			LMT1			LMT5			LHEE			RKNE			RTHI			RANK			RTIP			RTOE			RMT1			RMT5			RHEE			
		X1	Y1	Z1	X2	Y2	Z2	X3	Y3	Z3	X4	Y4	Z4	X5	Y5	Z5	X6	Y6	Z6	X7	Y7	Z7	X8	Y8	Z8	X9	Y9	Z9	X10	Y10	Z10	X11	Y11	Z11	X12	Y12	Z12	X13	Y13	Z13	X14	Y14	Z14	X15	Y15	Z15	X16	Y16	Z16	X17	Y17	Z17	X18	Y18	Z18	X19	Y19	Z19	X20	Y20	Z20	X21	Y21	Z21	X22	Y22	Z22	X23	Y23	Z23	X24	Y24	Z24	X25	Y25	Z25	X26	Y26	Z26	X27	Y27	Z27	X28	Y28	Z28	X29	Y29	Z29	X30	Y30	Z30	X31	Y31	Z31	X32	Y32	Z32	X33	Y33	Z33	X34	Y34	Z34	X35	Y35	Z35	X36	Y36	Z36	X37	Y37	Z37	X38	Y38	Z38	X39	Y39	Z39	X40	Y40	Z40	X41	Y41	Z41	X42	Y42	Z42	X43	Y43	Z43	X44	Y44	Z44	X45	Y45	Z45	X46	Y46	Z46	X47	Y47	Z47	X48	Y48	Z48	X49	Y49	Z49	X50	Y50	Z50	X51	Y51	Z51	X52	Y52	Z52	X53	Y53	Z53	

271	2.7	1177.703125	958.836669921875	307.8848266601562	1045.4833984375	942.70556640625	318.7411499023438	1107.535034179688	1032.2998046875	313.7001953125	1096.8955078125	1187.653930664062	80.67874145507812	1100.899169921875	1134.251342773438	323.5740356445312	1081.588623046875	1383.8505859375	291.7275390625	1090.128295898438	1306.18212890625	134.71435546875	1154.933471679688	1241.784545898438	334.9607238769531	980.4085693359375	1342.6455078125	308.2926330566406	929.4273071289062	1357.51025390625	220.9114990234375	863.7158203125	1239.1748046875	247.2597961425781	838.4767456054688	1043.461059570312	230.5958099365234	905.7360229492188	1020.863464355469	281.273193359375	863.6403198242188	850.944091796875	104.0151290893555	808.0687866210938	828.2598266601562	160.1002655029297	824.327880859375	943.6124877929688	205.6548614501953	849.1051635742188	675.9385986328125	67.04435729980469	816.392333984375	743.5926513671875	123.0975112915039	835.6111450195312	761.059814453125	70.97859191894531	1238.588134765625	1371.635375976562	234.8025970458984	1297.721435546875	1310.992309570312	251.0092620849609	1365.781127929688	1055.455688476562	254.0558471679688	1273.548828125	1036.071044921875	261.220947265625	1380.590698242188	838.5277099609375	126.906379699707	1437.106811523438	838.1708374023438	174.2939605712891	1393.946411132812	994.8785400390625	231.6676635742188	1408.604858398438	667.9945678710938	134.3082733154297	1416.37353515625	738.7110595703125	112.6540298461914	1450.052490234375	750.2645263671875	172.8742218017578	1161.957641601562	1580.8154296875	222.6650543212891	980.271240234375	1566.7890625	139.5432434082031	1096.959716796875	1587.160766601562	106.1572036743164	1015.74658203125	1550.950317382812	283.7125549316406	929.41748046875	927.6091918945312	237.2252349853516	1286.38671875	947.8656616210938	216.4928131103516	1224.688232421875	955.8402099609375	86.35344696044922	964.2781372070312	928.8237915039062	118.9475250244141	1043.482666015625	440.2239685058594	136.8885955810547	1003.642578125	575.3720703125	161.5544281005859	1179.070922851562	31.4052734375	220.1318054199219	1104.202758789062	212.6003875732422	173.7948455810547	1218.4384765625	29.53027725219727	-7.946273326873779	1257.72998046875	35.05234146118164	68.51897430419922	1153.832763671875	30.76261329650879	89.55485534667969	1237.527099609375	28.20788383483887	245.1505432128906	1310.22802734375	479.4736633300781	58.89219284057617	1301.250366210938	734.3291625976562	92.44846343994141	1362.2822265625	161.9122924804688	350.3750610351562	1321.096313476562	365.1045837402344	113.0034103393555	1308.796020507812	38.24040222167969	229.3598327636719	1274.677612304688	80.08322143554688	283.665771484375	1373.54638671875	92.95348358154297	300.3478698730469	1306.316040039062	193.7017211914062	413.3226318359375	
272	2.71	1179.875732421875	960.0646362304688	297.9173889160156	1047.974609375	943.6361694335938	311.5527648925781	1109.23876953125	1033.710205078125	304.8279113769531	1093.936157226562	1188.89013671875	72.03927612304688	1102.061889648438	1135.739379882812	315.3558654785156	1082.056396484375	1385.152221679688	282.8343200683594	1088.298706054688	1307.568603515625	126.019889831543	1155.953369140625	1243.162353515625	325.3027648925781	981.224853515625	1344.07080078125	301.0410766601562	929.0368041992188	1359.17724609375	214.5423126220703	863.3621826171875	1240.860717773438	241.6163330078125	837.74560546875	1045.297729492188	224.1266174316406	905.3289794921875	1022.35595703125	274.2748413085938	860.98779296875	857.1890258789062	92.01222991943359	805.4041748046875	832.9876098632812	147.5153961181641	822.91357421875	946.5493774414062	197.0390930175781	843.8460083007812	684.0570068359375	48.27344512939453	812.7208251953125	750.9563598632812	107.8213119506836	831.5960083007812	769.1519775390625	55.78598785400391	1238.284790039062	1372.798706054688	223.7631378173828	1297.443115234375	1312.351806640625	239.4697723388672	1364.879638671875	1056.840698242188	244.41064453125	1272.690673828125	1037.688110351562	252.4957580566406	1378.2568359375	837.5065307617188	120.9175796508789	1435.32373046875	838.1321411132812	167.5545959472656	1392.814208984375	995.9485473632812	222.6811676025391	1406.10791015625	667.8272094726562	130.7899932861328	1413.748413085938	737.80517578125	107.9088134765625	1447.999267578125	750.1578369140625	167.8014984130859	1161.460327148438	1582.036499023438	211.7635498046875	978.6995239257812	1567.484375	130.8928375244141	1094.942626953125	1587.609985351562	96.12255096435547	1016.030639648438	1552.563354492188	274.8074035644531	929.8228759765625	927.351806640625	232.3685760498047	1286.404052734375	949.8580932617188	203.7233581542969	1221.160766601562	957.5279541015625	75.41828155517578	961.6196899414062	929.224365234375	113.6632232666016	1042.84814453125	440.0808715820312	136.16796875	1003.196838378906	575.6477661132812	159.4679565429688	1179.547485351562	31.49480056762695	220.0389709472656	1104.10986328125	212.7170104980469	173.7982025146484	1218.400146484375	29.07848358154297	-8.176241874694824	1257.59130859375	34.99020767211914	68.50310516357422	1153.779907226562	30.69747352600098	89.51779174804688	1237.654296875	28.73743629455566	245.1446075439453	1305.192626953125	483.0401000976562	39.48097610473633	1298.282470703125	737.4542846679688	77.23766326904297	1366.5478515625	156.2648010253906	317.6257934570312	1317.725219726562	366.8359375	89.55893707275391	1311.460571289062	38.61936187744141	191.4279327392578	1278.485473632812	76.77780151367188	249.1229705810547	1377.418823242188	90.63002777099609	263.272705078125	1312.27880859375	183.6325531005859	384.1903991699219	
273	2.72	1181.95947265625	961.1739501953125	287.8806457519531	1050.479736328125	944.4574584960938	304.3533325195312	1111.0166015625	1035.0078125	295.9282836914062	1090.739379882812	1189.958251953125	63.48908233642578	1103.3154296875	1137.094482421875	307.1616821289062	1082.529296875	1386.318725585938	273.9876098632812	1086.315063476562	1308.790893554688	117.3947982788086	1156.97265625	1244.392578125	315.6335144042969	982.0748291015625	1345.364135742188	293.9107971191406	928.5912475585938	1360.77587890625	208.3681640625	863.0084838867188	1242.417114257812	236.2648773193359	836.9963989257812	1046.9892578125	217.9796600341797	904.98974609375	1023.694519042969	267.4763488769531	858.2180786132812	863.5712280273438	80.44162750244141	802.7446899414062	837.8046264648438	135.3784942626953	821.5003051757812	949.4716796875	188.783935546875	838.8052978515625	692.5944213867188	29.9551887512207	809.07958984375	758.5540161132812	93.03870391845703	827.6028442382812	777.4730224609375	41.08742141723633	1237.88427734375	1373.806762695312	212.6499176025391	1297.068481445312	1313.561889648438	227.8405609130859	1363.991943359375	1058.113037109375	234.7962188720703	1271.881958007812	1039.227661132812	243.8694152832031	1375.786010742188	836.357421875	114.9419555664062	1433.498413085938	838.0431518554688	160.6257476806641	1391.6728515625	996.9275512695312	213.6613006591797	1403.484008789062	667.8251342773438	126.8087997436523	1410.982055664062	736.9215087890625	102.9214248657227	1445.865234375	750.0647583007812	162.3907165527344	1160.896850585938	1583.09521484375	200.8628082275391	977.0604858398438	1568.06298828125	122.3209457397461	1092.865234375	1587.916625976562	86.10316467285156	1016.268188476562	1554.09326171875	265.9318542480469	930.31689453125	927.1102905273438	227.6404571533203	1286.335327148438	951.77978515625	190.820068359375	1217.528076171875	958.927490234375	64.68343353271484	959.0502319335938	929.5027465820312	108.4648971557617	1042.25390625	439.9241943359375	135.4759979248047	1002.598510742188	575.9082641601562	157.3935394287109	1179.95458984375	31.62992286682129	219.9321899414062	1104.183959960938	212.8061676025391	173.8361053466797	1218.34375	28.63962745666504	-8.377199172973633	1257.463256835938	34.92594146728516	68.51706695556641	1153.74658203125	30.64173698425293	89.48005676269531	1237.94873046875	29.32210731506348	245.1226806640625	1299.765502929688	486.3151550292969	20.78202056884766	1295.051635742188	740.4159545898438	62.30860900878906	1369.67138671875	149.9906005859375	284.2030029296875	1313.681274414062	368.277099609375	66.45170593261719	1312.545654296875	38.9183464050293	152.9047698974609	1280.941772460938	73.3367919921875	213.7249908447266	1379.80859375	87.89368438720703	225.6564483642578	1317.277587890625	172.8270721435547	354.0274658203125	
274	2.73	1183.92236328125	962.164306640625	277.7686462402344	1052.953979492188	945.1893310546875	297.1195373535156	1112.842163085938	1036.165283203125	287.0319213867188	1087.337524414062	1190.82568359375	55.007080078125	1104.630249023438	1138.293334960938	298.969970703125	1083.005249023438	1387.33203125	265.1690979003906	1084.190063476562	1309.807373046875	108.8138885498047	1157.993408203125	1245.46142578125	305.9507446289062	982.9559326171875	1346.508422851562	286.8739624023438	928.0921020507812	1362.265869140625	202.3479614257812	862.6672973632812	1243.79931640625	231.1497802734375	836.230224609375	1048.48876953125	212.0948181152344	904.708984375	1024.826538085938	260.8333129882812	855.319580078125	870.030029296875	69.29216766357422	800.0855712890625	842.6446533203125	123.6973419189453	820.0924072265625	952.3228759765625	180.8630981445312	833.9867553710938	701.4379272460938	12.17952537536621	805.4546508789062	766.274658203125	78.78595733642578	823.6175537109375	785.9080200195312	26.91856384277344	1237.384033203125	1374.634887695312	201.4547119140625	1296.59375	1314.594482421875	216.115966796875	1363.115478515625	1059.245239257812	225.1795959472656	1271.11279296875	1040.6484375	235.3164672851562	1373.19970703125	835.086669921875	108.9155578613281	1431.634887695312	837.8931884765625	153.4771118164062	1390.5234375	997.7899169921875	204.5804901123047	1400.751708984375	667.8875732421875	122.3834381103516	1408.105224609375	736.0289916992188	97.66909027099609	1443.67236328125	749.9570922851562	156.6189575195312	1160.26171875	1583.964233398438	189.9837036132812	975.3655395507812	1568.515258789062	113.8375701904297	1090.723754882812	1588.06982421875	76.1121826171875	1016.451293945312	1555.499755859375	257.0854797363281	930.8682861328125	926.8925170898438	222.9603881835938	1286.15234375	953.6224975585938	177.8127593994141	1213.834350585938	960.07275390625	54.08522796630859	956.58251953125	929.6548461914062	103.3150405883789	1041.70654296875	439.7524719238281	134.7353515625	1001.918823242188	576.142333984375	155.2999877929688	1180.296997070312	31.8138313293457	219.8232574462891	1104.413940429688	212.8668975830078	173.8672637939453	1218.2841796875	28.22002029418945	-8.55858325958252	1257.356689453125	34.86760711669922	68.57669067382812	1153.740112304688	30.5948657989502	89.438720703125	1238.369262695312	29.90520858764648	245.1092224121094	1294.01416015625	489.2730102539062	2.810999155044556	1291.587280273438	743.1736450195312	47.65613174438477	1371.543334960938	143.1993255615234	250.1564025878906	1309.035034179688	369.427001953125	43.76019668579102	1311.983520507812	39.20355224609375	113.9870300292969	1281.917846679688	69.77780151367188	177.6389770507812	1380.640258789062	84.82199096679688	187.6302642822266	1321.135375976562	161.4417724609375	322.8319091796875	
